<svg width="32" height="32" viewBox="0 0 32 32" fill="none" xmlns="http://www.w3.org/2000/svg">
<path d="M4.4445 5.0791C3.02075 5.0791 1.90475 6.19535 1.90475 7.61885V21.5871C1.90475 22.0559 2.03375 22.4849 2.247 22.8571H0.635C0.28275 22.8571 0 23.1399 0 23.4919C0 25.2429 1.4235 26.6666 3.1745 26.6666H15.1713L18.9808 22.8571H4.4445C3.72025 22.8571 3.1745 22.3114 3.1745 21.5871V7.61885C3.1745 6.8946 3.72025 6.3491 4.4445 6.3491H27.3015C28.0258 6.3491 28.5715 6.8946 28.5715 7.61885V14.2559C29.0178 14.4146 29.4445 14.6179 29.8413 14.8634V7.61885C29.8413 6.19535 28.7253 5.0791 27.3015 5.0791H4.4445ZM26.3493 15.2379C23.373 15.2379 20.9525 17.6586 20.9525 20.6349C20.9525 21.2574 21.059 21.8649 21.2698 22.4479L15.9128 27.8024C15.0125 28.7029 15.0125 30.1686 15.9128 31.0714C16.364 31.5201 16.9568 31.7459 17.547 31.7459C18.1375 31.7459 18.7303 31.5201 19.179 31.0714L24.5338 25.7141C25.119 25.9249 25.7268 26.0316 26.3493 26.0316C29.3255 26.0316 31.746 23.6109 31.746 20.6349C31.746 20.0644 31.6543 19.4964 31.4733 18.9459L31.3568 18.5911L27.6488 22.2221L25.3968 21.5871L24.762 19.3351L28.3928 15.6274L28.0383 15.5134C27.49 15.3296 26.922 15.2379 26.3493 15.2379Z" fill="black"/>
</svg>
