<svg width="32" height="32" viewBox="0 0 32 32" fill="none" xmlns="http://www.w3.org/2000/svg">
<path d="M4.44455 2.53955C3.39529 2.53955 2.53979 3.39505 2.53979 4.4443V27.3013C2.53979 28.3506 3.39529 29.2061 4.44455 29.2061H27.3015C28.3508 29.2061 29.2063 28.3506 29.2063 27.3013V4.4443C29.2063 3.39505 28.3508 2.53955 27.3015 2.53955H4.44455ZM9.5238 5.07905C9.87355 5.07905 10.1588 5.3643 10.1588 5.71405C10.1588 6.0638 9.87355 6.34905 9.5238 6.34905C9.17405 6.34905 8.88905 6.0638 8.88905 5.71405C8.88905 5.3643 9.17405 5.07905 9.5238 5.07905ZM12.0635 5.07905C12.4133 5.07905 12.6985 5.3643 12.6985 5.71405C12.6985 6.0638 12.4133 6.34905 12.0635 6.34905C11.7138 6.34905 11.4285 6.0638 11.4285 5.71405C11.4285 5.3643 11.7138 5.07905 12.0635 5.07905ZM14.6033 5.07905C14.953 5.07905 15.238 5.3643 15.238 5.71405C15.238 6.0638 14.953 6.34905 14.6033 6.34905C14.2535 6.34905 13.9683 6.0638 13.9683 5.71405C13.9683 5.3643 14.2535 5.07905 14.6033 5.07905ZM17.1428 5.07905C17.495 5.07905 17.7778 5.3643 17.7778 5.71405C17.7778 6.0638 17.495 6.34905 17.1428 6.34905C16.7908 6.34905 16.508 6.0638 16.508 5.71405C16.508 5.3643 16.7908 5.07905 17.1428 5.07905ZM19.6825 5.07905C20.0348 5.07905 20.3175 5.3643 20.3175 5.71405C20.3175 6.0638 20.0348 6.34905 19.6825 6.34905C19.3303 6.34905 19.0475 6.0638 19.0475 5.71405C19.0475 5.3643 19.3303 5.07905 19.6825 5.07905ZM22.2223 5.07905C22.5745 5.07905 22.8573 5.3643 22.8573 5.71405C22.8573 6.0638 22.5745 6.34905 22.2223 6.34905C21.87 6.34905 21.5873 6.0638 21.5873 5.71405C21.5873 5.3643 21.87 5.07905 22.2223 5.07905ZM5.7143 8.8888C6.06405 8.8888 6.3493 9.1738 6.3493 9.52355C6.3493 9.8733 6.06405 10.1586 5.7143 10.1586C5.36455 10.1586 5.0793 9.8733 5.0793 9.52355C5.0793 9.1738 5.36455 8.8888 5.7143 8.8888ZM26.0318 8.8888C26.384 8.8888 26.6668 9.1738 26.6668 9.52355C26.6668 9.8733 26.384 10.1586 26.0318 10.1586C25.6795 10.1586 25.3968 9.8733 25.3968 9.52355C25.3968 9.1738 25.6795 8.8888 26.0318 8.8888ZM10.1588 9.52355H21.5873C21.9395 9.52355 22.2223 9.8088 22.2223 10.1586V21.5871C22.2223 21.9393 21.9395 22.2221 21.5873 22.2221H10.1588C9.80905 22.2221 9.5238 21.9393 9.5238 21.5871V10.1586C9.5238 9.8088 9.80905 9.52355 10.1588 9.52355ZM10.7938 10.7936V20.9523H20.9525V10.7936H10.7938ZM5.7143 11.4283C6.06405 11.4283 6.3493 11.7136 6.3493 12.0633C6.3493 12.4131 6.06405 12.6983 5.7143 12.6983C5.36455 12.6983 5.0793 12.4131 5.0793 12.0633C5.0793 11.7136 5.36455 11.4283 5.7143 11.4283ZM26.0318 11.4283C26.384 11.4283 26.6668 11.7136 26.6668 12.0633C26.6668 12.4131 26.384 12.6983 26.0318 12.6983C25.6795 12.6983 25.3968 12.4131 25.3968 12.0633C25.3968 11.7136 25.6795 11.4283 26.0318 11.4283ZM5.7143 13.9681C6.06405 13.9681 6.3493 14.2533 6.3493 14.6031C6.3493 14.9528 6.06405 15.2378 5.7143 15.2378C5.36455 15.2378 5.0793 14.9528 5.0793 14.6031C5.0793 14.2533 5.36455 13.9681 5.7143 13.9681ZM26.0318 13.9681C26.384 13.9681 26.6668 14.2533 26.6668 14.6031C26.6668 14.9528 26.384 15.2378 26.0318 15.2378C25.6795 15.2378 25.3968 14.9528 25.3968 14.6031C25.3968 14.2533 25.6795 13.9681 26.0318 13.9681ZM5.7143 16.5078C6.06405 16.5078 6.3493 16.7906 6.3493 17.1426C6.3493 17.4948 6.06405 17.7776 5.7143 17.7776C5.36455 17.7776 5.0793 17.4948 5.0793 17.1426C5.0793 16.7906 5.36455 16.5078 5.7143 16.5078ZM26.0318 16.5078C26.384 16.5078 26.6668 16.7906 26.6668 17.1426C26.6668 17.4948 26.384 17.7776 26.0318 17.7776C25.6795 17.7776 25.3968 17.4948 25.3968 17.1426C25.3968 16.7906 25.6795 16.5078 26.0318 16.5078ZM5.7143 19.0473C6.06405 19.0473 6.3493 19.3301 6.3493 19.6823C6.3493 20.0346 6.06405 20.3173 5.7143 20.3173C5.36455 20.3173 5.0793 20.0346 5.0793 19.6823C5.0793 19.3301 5.36455 19.0473 5.7143 19.0473ZM26.0318 19.0473C26.384 19.0473 26.6668 19.3301 26.6668 19.6823C26.6668 20.0346 26.384 20.3173 26.0318 20.3173C25.6795 20.3173 25.3968 20.0346 25.3968 19.6823C25.3968 19.3301 25.6795 19.0473 26.0318 19.0473ZM5.7143 21.5871C6.06405 21.5871 6.3493 21.8698 6.3493 22.2221C6.3493 22.5743 6.06405 22.8571 5.7143 22.8571C5.36455 22.8571 5.0793 22.5743 5.0793 22.2221C5.0793 21.8698 5.36455 21.5871 5.7143 21.5871ZM26.0318 21.5871C26.384 21.5871 26.6668 21.8698 26.6668 22.2221C26.6668 22.5743 26.384 22.8571 26.0318 22.8571C25.6795 22.8571 25.3968 22.5743 25.3968 22.2221C25.3968 21.8698 25.6795 21.5871 26.0318 21.5871ZM9.5238 25.3966C9.87355 25.3966 10.1588 25.6793 10.1588 26.0316C10.1588 26.3838 9.87355 26.6666 9.5238 26.6666C9.17405 26.6666 8.88905 26.3838 8.88905 26.0316C8.88905 25.6793 9.17405 25.3966 9.5238 25.3966ZM12.0635 25.3966C12.4133 25.3966 12.6985 25.6793 12.6985 26.0316C12.6985 26.3838 12.4133 26.6666 12.0635 26.6666C11.7138 26.6666 11.4285 26.3838 11.4285 26.0316C11.4285 25.6793 11.7138 25.3966 12.0635 25.3966ZM14.6033 25.3966C14.953 25.3966 15.238 25.6793 15.238 26.0316C15.238 26.3838 14.953 26.6666 14.6033 26.6666C14.2535 26.6666 13.9683 26.3838 13.9683 26.0316C13.9683 25.6793 14.2535 25.3966 14.6033 25.3966ZM17.1428 25.3966C17.495 25.3966 17.7778 25.6793 17.7778 26.0316C17.7778 26.3838 17.495 26.6666 17.1428 26.6666C16.7908 26.6666 16.508 26.3838 16.508 26.0316C16.508 25.6793 16.7908 25.3966 17.1428 25.3966ZM19.6825 25.3966C20.0348 25.3966 20.3175 25.6793 20.3175 26.0316C20.3175 26.3838 20.0348 26.6666 19.6825 26.6666C19.3303 26.6666 19.0475 26.3838 19.0475 26.0316C19.0475 25.6793 19.3303 25.3966 19.6825 25.3966ZM22.2223 25.3966C22.5745 25.3966 22.8573 25.6793 22.8573 26.0316C22.8573 26.3838 22.5745 26.6666 22.2223 26.6666C21.87 26.6666 21.5873 26.3838 21.5873 26.0316C21.5873 25.6793 21.87 25.3966 22.2223 25.3966Z" fill="black"/>
</svg>
