<svg width="32" height="32" viewBox="0 0 32 32" fill="none" xmlns="http://www.w3.org/2000/svg">
<path d="M2.53955 2.53955V29.2061H29.2061V27.3013H25.3966V23.4918H23.4918V19.6823H25.3966V17.7776H21.5871V13.9681H12.0633V10.1586H13.9681V8.2538H17.7776V10.1586H15.8728V12.0633H19.6823V10.1586H25.3966V6.34905H29.2061V4.4443H27.3013V2.53955H25.3966V4.4443H23.4918V2.53955H21.5871V4.4443H19.6823V2.53955H17.7776V6.34905H15.8728V2.53955H13.9681V6.34905H12.0633V8.2538H10.1586V12.0633H6.34905V13.9681H10.1586V15.8728H8.2538V17.7776H12.0633V15.8728H19.6823V23.4918H21.5871V25.3966H23.4918V27.3013H19.6823V23.4918H17.7776V25.3966H13.9681V27.3013H12.0633V25.3966H8.2538V27.3013H4.4443V12.0633H6.34905V6.34905H4.4443V2.53955H2.53955ZM6.34905 6.34905H8.2538V2.53955H6.34905V6.34905ZM17.7776 23.4918V21.5871H15.8728V23.4918H17.7776ZM8.2538 17.7776H6.34905V19.6823H8.2538V17.7776ZM21.5871 13.9681H23.4918V15.8728H25.3966V17.7776H29.2061V15.8728H27.3013V13.9681H29.2061V12.0633H21.5871V13.9681ZM25.3966 19.6823V23.4918H27.3013V21.5871H29.2061V19.6823H25.3966ZM27.3013 23.4918V25.3966H29.2061V23.4918H27.3013ZM10.1586 2.53955V4.4443H12.0633V2.53955H10.1586ZM19.6823 6.34905H21.5871V8.2538H19.6823V6.34905ZM27.3013 8.2538V10.1586H29.2061V8.2538H27.3013ZM15.8728 17.7776V19.6823H17.7776V17.7776H15.8728ZM12.0633 19.6823V21.5871H10.1586V23.4918H13.9681V19.6823H12.0633ZM6.34905 21.5871V23.4918H8.2538V21.5871H6.34905Z" fill="black"/>
</svg>
