<svg width="54" height="50" viewBox="0 0 54 50" fill="none" xmlns="http://www.w3.org/2000/svg">
<path d="M27 0C13.3377 0 2.25039 11.0873 2.25039 24.7496C2.25039 30.4098 4.13121 35.5951 7.282 39.7611L1.45483 37.9813C0.861708 37.7966 0.229158 38.1306 0.0488729 38.7286C-0.131412 39.3217 0.202581 39.9503 0.795707 40.1301L10.8505 43.2065L12.2476 32.8576C12.2963 32.5409 12.2037 32.2157 11.9973 31.9655C11.7865 31.7192 11.483 31.5743 11.1579 31.5699C10.5781 31.5566 10.0859 31.9827 10.0199 32.5586L9.20667 38.57C6.26274 34.7512 4.5002 29.9921 4.5002 24.7496C4.5002 12.3002 14.5506 2.2498 27 2.2498V0ZM29.3729 0.0877064L29.0567 2.31137L30.1774 2.47394C31.2936 2.62809 30.1729 2.47394 31.2892 2.62809L31.6099 0.404424L30.4936 0.237428L29.3729 0.0877064ZM34.009 0.984261L33.2754 3.11136L34.3346 3.47149C35.3977 3.83206 34.3346 3.47149 35.3977 3.83206L36.1361 1.70939L34.009 0.984261ZM38.373 2.74238L37.2524 4.68432L38.2233 5.24688C39.208 5.81387 38.2233 5.24688 39.208 5.81387L40.3283 3.8582L38.373 2.74238ZM43.1495 6.29272L41.7524 16.6416C41.6687 17.2569 42.0992 17.8239 42.7145 17.9076C43.3342 17.9865 43.9012 17.5559 43.9801 16.9406L44.7933 10.9292C47.7377 14.748 49.4998 19.5072 49.4998 24.7496C49.4998 37.1991 39.4494 47.2494 27 47.2494V49.4992C40.6623 49.4992 51.7496 38.4119 51.7496 24.7496C51.7496 19.0894 49.8688 13.9041 46.718 9.73807L52.5452 11.5179C53.1383 11.7026 53.7713 11.3686 53.9511 10.775C54.1314 10.1775 53.7974 9.54937 53.2043 9.36909L43.1495 6.29272ZM14.7131 43.6371L13.588 45.5839L15.5392 46.713L16.6688 44.775L14.7131 43.6371ZM18.5186 45.6322L17.7718 47.7548L19.894 48.4839L20.6369 46.3661L19.5822 46.0011L18.5186 45.6322ZM22.6187 46.8538L22.2935 49.0775L23.4098 49.2489L24.5261 49.4026L24.8556 47.179L23.7349 47.012L22.6187 46.8538Z" fill="black"/>
</svg>
