<svg width="64" height="64" fill="none" xmlns="http://www.w3.org/2000/svg">
  <circle cx="40" cy="40" r="24" fill="#E5E5E5"/>
  <path d="M28 5C14.3377 5 3.25039 16.0873 3.25039 29.7496c0 5.6602 1.88082 10.8455 5.03161 15.0115l-5.82717-1.7798c-.59312-.1847-1.22567.1493-1.40596.7473-.180282.5931.15371 1.2217.74684 1.4015l10.05479 3.0764 1.3971-10.3489c.0487-.3167-.0439-.6419-.2503-.8921-.2108-.2463-.5143-.3912-.8394-.3956-.5798-.0133-1.072.4128-1.138.9887l-.8132 6.0114c-2.94396-3.8188-4.7065-8.5779-4.7065-13.8204C5.5002 17.3002 15.5506 7.2498 28 7.2498V5Zm2.3729.08771-.3162 2.22366 1.1207.16257c1.1162.15415-.0045 0 1.1118.15415l.3207-2.22367-1.1163-.16699-1.1207-.14972Zm4.6361.89655-.7336 2.1271 1.0592.36013 1.0631.36057.7384-2.12267-2.1271-.72513Zm4.364 1.75812-1.1206 1.94194.9709.56258.9847.567 1.1203-1.9557-1.9553-1.11582Zm4.7765 3.55032-1.3971 10.3489c-.0837.6153.3468 1.1823.9621 1.266.6197.0789 1.1867-.3517 1.2656-.967l.8132-6.0114c2.9444 3.8188 4.7065 8.578 4.7065 13.8204 0 12.4495-10.0504 22.4998-22.4998 22.4998v2.2498c13.6623 0 24.7496-11.0873 24.7496-24.7496 0-5.6602-1.8808-10.8455-5.0316-15.0115l5.8272 1.7798c.5931.1847 1.2261-.1493 1.4059-.7429.1803-.5975-.1537-1.2256-.7468-1.4059l-10.0548-3.0764ZM15.7131 48.6371l-1.1251 1.9468 1.9512 1.1291 1.1296-1.938-1.9557-1.1379Zm3.8055 1.9951-.7468 2.1226 2.1222.7291.7429-2.1178-1.0547-.365-1.0636-.3689Zm4.1001 1.2216-.3252 2.2237 1.1163.1714 1.1163.1537.3295-2.2236-1.1207-.167-1.1162-.1582Z" fill="#000"/>
</svg>
