<svg width="64" height="64" fill="none" xmlns="http://www.w3.org/2000/svg">
  <g clip-path="url(#a)">
    <path d="M24.1717 24.4635C24.9065 20.7089 28.1969 18 32.0228 18h18.8275c3.7238 0 6.9552 2.5693 7.7943 6.1973l5.0882 22C64.8924 51.2112 61.0848 56 55.9386 56H27.7174c-5.0349 0-8.8181-4.5953-7.8511-9.5365l4.3054-22Z" fill="#E5E5E5"/>
    <path d="M29.6036 11.4919c-3.9903 0-6.6052.2667-8.2619.5589-1.5601.2751-2.2365.5941-2.3203.6289-.0044.0044-.1404.0348-.1404.0348-1.6656.5588-4.2011 1.3272-5.379 3.5975-.2857.5501-.7119 1.6679-1.336 3.2482-.4788 1.2137-1.0414 2.746-1.6173 4.226H7.20915c-1.67 0-2.90944.5545-3.65629 1.3972-.74729.8423-.94928 1.8421-.94928 2.6193 0 .8687.4567 1.7374 1.16014 2.1656.70299.4277 1.48971.5236 2.32028.5236h1.86314c-.17586.4674-.77343 2.0257-.77343 2.0257l-.07043.2095v13.412c0 1.8377 1.52515 3.3528 3.37502 3.3528h4.5001c1.8503 0 3.375-1.5151 3.375-3.3528v-1.1178h22.5003v1.1178c0 1.8377 1.5247 3.3528 3.375 3.3528h4.5002c1.8498 0 3.375-1.5151 3.375-3.3528v-13.412l-.0705-.2095s-.5887-1.5543-.7734-2.0257h1.8631c.8306 0 1.6173-.0959 2.3203-.5236.7035-.4282 1.1602-1.2969 1.1602-2.1656 0-.7772-.202-1.777-.9489-2.6193-.7473-.8427-1.9867-1.3972-3.6563-1.3972h-3.34c-.0704-.1659-.1408-.3274-.1758-.419-1.2173-3.1262-2.3907-6.1033-2.8124-7.0552-1.0769-2.4318-3.8455-3.1782-5.3441-3.5975-.0482-.0132-.1315-.0568-.1754-.0696v.0348c-.1058-.0436-.7473-.3538-2.2853-.6289-1.6567-.2922-4.2715-.5589-8.2618-.5589Zm0 2.2356c3.8848 0 6.381.2926 7.8751.5589 1.4942.2662 1.8632.4537 1.8632.4537l.1054.0352.0704.0348c1.371.3885 3.5814 1.2837 4.078 2.4098.3252.7336 1.604 4.0037 2.7774 6.9852.2813.7116.7518 1.8729.5976 2.5845-.0788.3583-.2153.6157-.738.9083-.5231.2927-1.5074.5589-3.1291.5589h-27c-1.6217 0-2.606-.2662-3.1292-.5589-.5227-.2926-.6591-.55-.738-.9083-.1541-.7116.3163-1.8729.5976-2.5845l-.0704-.0348c.5143-1.3316 1.0414-2.7112 1.4768-3.807.6193-1.5671 1.173-2.8244 1.2656-3.0035.6237-1.2049 2.5706-2.0256 4.2184-2.5845h.0705l.0704-.0352s.369-.1875 1.8631-.4537c1.4942-.2663 3.9903-.5589 7.8752-.5589ZM7.20915 26.0213h2.42571c-.42658 1.1134-.501 1.3316-.84386 2.2355H6.084c-.62857 0-1.01972-.1091-1.12514-.1747-.10543-.0655-.10543.0348-.10543-.2794 0-.4062.11429-.8472.38671-1.1526.27243-.3058.7473-.6288 1.96901-.6288Zm42.29315 0h2.4961c1.2218 0 1.6962.323 1.9686.6288.2724.3054.3867.7464.3867 1.1526 0 .3142 0 .2139-.1054.2794-.1054.0656-.4966.1747-1.1252.1747h-2.7419c-.3606-.9171-.4395-1.1045-.8789-2.2355Zm-38.5314 2.8992c.2591.2706.5577.5324.9138.7331 1.0153.5677 2.3597.8383 4.2189.8383h27c1.8591 0 3.2035-.2706 4.2188-.8383.3562-.2007.6547-.4625.9143-.7331.6592 1.7197 1.5775 4.13 1.6169 4.2259v8.6967c0 .5237-.4395.9431-1.0193.9431H10.3729c-.5799 0-1.01932-.4194-1.01932-.9431v-8.6967c.03499-.0959.97542-2.5233 1.61732-4.2259Zm2.8828 2.6892c-1.8503 0-3.3754 1.5147-3.3754 3.3529 0 .991.4133 1.8729.9847 2.4798.571.6069 1.2611 1.017 1.9336 1.3968.9537.5373 1.604.9474 2.3553 1.2573.7517.3102 1.5601.4541 2.6015.4541 2.47 0 4.5002-2.0124 4.5002-4.4707 0-2.4577-2.0302-4.4702-4.5002-4.4702h-4.4997Zm27 0c-2.47 0-4.5001 2.0125-4.5001 4.4702 0 2.4583 2.0301 4.4707 4.5001 4.4707 1.0414 0 1.8499-.1439 2.6016-.4541.7513-.3099 1.402-.72 2.3553-1.2573.6724-.3798 1.3626-.7899 1.9335-1.3968.5715-.6069.9848-1.4888.9848-2.4798 0-1.8382-1.5252-3.3529-3.375-3.3529h-4.5002Zm-27 2.2351h4.4997c1.2572 0 2.2503.9867 2.2503 2.2351 0 1.249-.9931 2.2356-2.2503 2.2356-.8438 0-1.2611-.0744-1.7577-.2794-.4966-.2051-1.1163-.5937-2.1094-1.1526-.6326-.3538-1.0986-.69-1.371-.9778-.2724-.2883-.3867-.4762-.3867-.9431 0-.6289.4921-1.1178 1.1251-1.1178Zm27 0h4.5002c.6325 0 1.1247.4889 1.1247 1.1178 0 .4669-.1143.6548-.3867.9431-.2725.2878-.738.624-1.371.9778-.9932.5589-1.6129.9475-2.1095 1.1526-.4965.205-.9138.2794-1.7577.2794-1.2567 0-2.2498-.9866-2.2498-2.2356 0-1.2484.9931-2.2351 2.2498-2.2351ZM9.35358 44.8466c.32514.1047.66352.1747 1.01932.1747h5.7307v1.1178c0 .6284-.4922 1.1173-1.1252 1.1173h-4.5001c-.63258 0-1.12472-.4889-1.12472-1.1173v-1.2925Zm40.50002 0v1.2925c0 .6284-.4922 1.1173-1.1247 1.1173h-4.5002c-.633 0-1.1251-.4889-1.1251-1.1173v-1.1178h5.7307c.3557 0 .6941-.07 1.0193-.1747Z" fill="#000"/>
  </g>
  <defs>
    <clipPath id="a">
      <path fill="#fff" d="M0 0h64v64H0z"/>
    </clipPath>
  </defs>
</svg>
