<svg width="55" height="39" viewBox="0 0 55 39" fill="none" xmlns="http://www.w3.org/2000/svg">
<path d="M27.6036 0.491943C23.6133 0.491943 20.9984 0.758625 19.3417 1.05083C17.7816 1.32587 17.1052 1.64493 17.0214 1.67969C17.017 1.68409 16.881 1.71446 16.881 1.71446C15.2154 2.27334 12.6799 3.04171 11.502 5.31202C11.2163 5.86211 10.7901 6.97989 10.166 8.56018C9.68715 9.77389 9.12458 11.3062 8.54871 12.7862H5.20915C3.53915 12.7862 2.29971 13.3407 1.55286 14.1834C0.805572 15.0257 0.603577 16.0255 0.603577 16.8027C0.603577 17.6714 1.06028 18.5401 1.76372 18.9683C2.46671 19.396 3.25343 19.4919 4.084 19.4919H5.94714C5.77128 19.9593 5.17371 21.5176 5.17371 21.5176L5.10328 21.7271V35.1391C5.10328 36.9768 6.62843 38.4919 8.47828 38.4919H12.9784C14.8287 38.4919 16.3534 36.9768 16.3534 35.1391V34.0213H38.8537V35.1391C38.8537 36.9768 40.3784 38.4919 42.2287 38.4919H46.7289C48.5787 38.4919 50.1039 36.9768 50.1039 35.1391V21.7271L50.0334 21.5176C50.0334 21.5176 49.4447 19.9633 49.26 19.4919H51.1231C51.9537 19.4919 52.7404 19.396 53.4434 18.9683C54.1469 18.5401 54.6036 17.6714 54.6036 16.8027C54.6036 16.0255 54.4016 15.0257 53.6547 14.1834C52.9074 13.3407 51.668 12.7862 49.9984 12.7862H46.6584C46.588 12.6203 46.5176 12.4588 46.4826 12.3672C45.2653 9.24096 44.0919 6.26389 43.6702 5.31202C42.5933 2.8802 39.8247 2.13384 38.3261 1.71446C38.2779 1.70125 38.1946 1.65769 38.1507 1.64493V1.67969C38.0449 1.63612 37.4034 1.32587 35.8654 1.05083C34.2087 0.758625 31.5939 0.491943 27.6036 0.491943ZM27.6036 2.7275C31.4884 2.7275 33.9846 3.02014 35.4787 3.28638C36.9729 3.55263 37.3419 3.7401 37.3419 3.7401L37.4473 3.7753L37.5177 3.81007C38.8887 4.19865 41.0991 5.09375 41.5957 6.21989C41.9209 6.95348 43.1997 10.2236 44.3731 13.2051C44.6544 13.9167 45.1249 15.078 44.9707 15.7896C44.8919 16.1479 44.7554 16.4053 44.2327 16.6979C43.7096 16.9906 42.7253 17.2568 41.1036 17.2568H14.1036C12.4819 17.2568 11.4976 16.9906 10.9744 16.6979C10.4517 16.4053 10.3153 16.1479 10.2364 15.7896C10.0823 15.078 10.5527 13.9167 10.834 13.2051L10.7636 13.1703C11.2779 11.8387 11.805 10.4591 12.2404 9.3633C12.8597 7.79622 13.4134 6.53894 13.506 6.35983C14.1297 5.15492 16.0766 4.33419 17.7244 3.7753H17.7949L17.8653 3.7401C17.8653 3.7401 18.2343 3.55263 19.7284 3.28638C21.2226 3.02014 23.7187 2.7275 27.6036 2.7275ZM5.20915 15.0213H7.63486C7.20828 16.1347 7.13386 16.3529 6.791 17.2568H4.084C3.45543 17.2568 3.06428 17.1477 2.95886 17.0821C2.85343 17.0166 2.85343 17.1169 2.85343 16.8027C2.85343 16.3965 2.96772 15.9555 3.24014 15.6501C3.51257 15.3443 3.98744 15.0213 5.20915 15.0213ZM47.5023 15.0213H49.9984C51.2202 15.0213 51.6946 15.3443 51.967 15.6501C52.2394 15.9555 52.3537 16.3965 52.3537 16.8027C52.3537 17.1169 52.3537 17.0166 52.2483 17.0821C52.1429 17.1477 51.7517 17.2568 51.1231 17.2568H48.3812C48.0206 16.3397 47.9417 16.1523 47.5023 15.0213ZM8.97087 17.9205C9.23 18.1911 9.52857 18.4529 9.88472 18.6536C10.9 19.2213 12.2444 19.4919 14.1036 19.4919H41.1036C42.9627 19.4919 44.3071 19.2213 45.3224 18.6536C45.6786 18.4529 45.9771 18.1911 46.2367 17.9205C46.8959 19.6402 47.8142 22.0505 47.8536 22.1464V30.8431C47.8536 31.3668 47.4141 31.7862 46.8343 31.7862H8.37285C7.793 31.7862 7.35358 31.3668 7.35358 30.8431V22.1464C7.38857 22.0505 8.329 19.6231 8.97087 17.9205ZM11.8537 20.6097C10.0034 20.6097 8.47828 22.1244 8.47828 23.9626C8.47828 24.9536 8.89157 25.8355 9.46301 26.4424C10.034 27.0493 10.7241 27.4594 11.3966 27.8392C12.3503 28.3765 13.0006 28.7867 13.7519 29.0965C14.5036 29.4067 15.312 29.5506 16.3534 29.5506C18.8234 29.5506 20.8536 27.5382 20.8536 25.0799C20.8536 22.6222 18.8234 20.6097 16.3534 20.6097H11.8537ZM38.8537 20.6097C36.3837 20.6097 34.3536 22.6222 34.3536 25.0799C34.3536 27.5382 36.3837 29.5506 38.8537 29.5506C39.8951 29.5506 40.7036 29.4067 41.4553 29.0965C42.2066 28.7867 42.8573 28.3765 43.8106 27.8392C44.483 27.4594 45.1732 27.0493 45.7441 26.4424C46.3156 25.8355 46.7289 24.9536 46.7289 23.9626C46.7289 22.1244 45.2037 20.6097 43.3539 20.6097H38.8537ZM11.8537 22.8448H16.3534C17.6106 22.8448 18.6037 23.8315 18.6037 25.0799C18.6037 26.3289 17.6106 27.3155 16.3534 27.3155C15.5096 27.3155 15.0923 27.2411 14.5957 27.0361C14.0991 26.831 13.4794 26.4424 12.4863 25.8835C11.8537 25.5297 11.3877 25.1935 11.1153 24.9057C10.8429 24.6174 10.7286 24.4295 10.7286 23.9626C10.7286 23.3337 11.2207 22.8448 11.8537 22.8448ZM38.8537 22.8448H43.3539C43.9864 22.8448 44.4786 23.3337 44.4786 23.9626C44.4786 24.4295 44.3643 24.6174 44.0919 24.9057C43.8194 25.1935 43.3539 25.5297 42.7209 25.8835C41.7277 26.4424 41.108 26.831 40.6114 27.0361C40.1149 27.2411 39.6976 27.3155 38.8537 27.3155C37.597 27.3155 36.6039 26.3289 36.6039 25.0799C36.6039 23.8315 37.597 22.8448 38.8537 22.8448ZM7.35358 33.8466C7.67872 33.9513 8.01715 34.0213 8.37285 34.0213H14.1036V35.1391C14.1036 35.7675 13.6114 36.2564 12.9784 36.2564H8.47828C7.84572 36.2564 7.35358 35.7675 7.35358 35.1391V33.8466ZM47.8536 33.8466V35.1391C47.8536 35.7675 47.3614 36.2564 46.7289 36.2564H42.2287C41.5957 36.2564 41.1036 35.7675 41.1036 35.1391V34.0213H46.8343C47.19 34.0213 47.5284 33.9513 47.8536 33.8466Z" fill="black"/>
</svg>
