<svg width="55" height="55" viewBox="0 0 55 55" fill="none" xmlns="http://www.w3.org/2000/svg">
<path d="M23.4078 0.539551C22.8551 0.539551 22.3818 0.942007 22.2936 1.4902L21.2146 8.11803C19.8575 8.50711 18.5529 9.04239 17.3237 9.71448L11.8542 5.81026C11.4032 5.48758 10.7841 5.53616 10.395 5.92524L5.99566 10.3246C5.60658 10.7137 5.55354 11.3283 5.86775 11.7749L9.71448 17.2796C9.02902 18.5177 8.48528 19.8307 8.08728 21.1972L1.48575 22.2936C0.942007 22.3863 0.539551 22.8551 0.539551 23.4078V29.6332C0.539551 30.1858 0.933093 30.6547 1.47728 30.7474L8.07391 31.9191C8.47191 33.2811 9.01565 34.5941 9.70111 35.8367L5.81026 41.2839C5.48758 41.7349 5.54062 42.3495 5.9297 42.7431L10.3291 47.1469C10.7182 47.5405 11.3328 47.589 11.7794 47.2748L17.293 43.4152C18.5306 44.0962 19.8396 44.6355 21.1927 45.0246L22.2936 51.6613C22.3863 52.205 22.8551 52.6075 23.4078 52.6075H29.6332C30.1814 52.6075 30.6547 52.214 30.7474 51.6747L31.0482 50.0033C30.3276 49.477 29.6644 48.8891 29.0627 48.2389L28.687 50.3434H24.3718L23.3017 43.9366C23.2309 43.4856 22.8993 43.1322 22.4571 43.0216C20.8299 42.6192 19.2647 41.9738 17.8144 41.107C17.4298 40.8725 16.948 40.8904 16.5808 41.1466L11.2575 44.8784L8.20672 41.8232L11.9692 36.5618C12.2304 36.1946 12.2522 35.7039 12.0178 35.3148C11.1425 33.869 10.4882 32.2993 10.0813 30.6591C9.97075 30.2259 9.62134 29.8939 9.17921 29.819L2.80365 28.6914V24.3718L9.17476 23.3106C9.62134 23.2353 9.97967 22.9037 10.0902 22.4705C10.5016 20.821 11.1514 19.2513 12.0223 17.81C12.2567 17.4253 12.2389 16.9391 11.9826 16.5767L8.26867 11.2575L11.3194 8.20672L16.5986 11.9781C16.9614 12.2389 17.4476 12.2611 17.8367 12.0312C19.2736 11.1648 20.8389 10.5234 22.4834 10.121C22.926 10.0104 23.2576 9.65253 23.3325 9.20595L24.3763 2.80365H28.687L29.8101 9.24116C29.8899 9.67883 30.217 10.0327 30.6547 10.1432C32.2819 10.5501 33.8427 11.2 35.284 12.0708C35.6731 12.3053 36.1638 12.2834 36.5306 12.0178L41.8232 8.21563L44.8784 11.2619L41.107 16.6382C40.8462 17.0055 40.8329 17.4873 41.0584 17.8719C41.9208 19.3003 42.5617 20.8522 42.9686 22.475C43.0791 22.9171 43.437 23.2487 43.8881 23.3191L50.3434 24.3763V28.6914L48.2344 29.0582C48.8891 29.6599 49.477 30.3276 50.0033 31.0482L51.6702 30.7518C52.214 30.6591 52.6075 30.1903 52.6075 29.6376V23.4123C52.6075 22.8596 52.205 22.3863 51.6568 22.298L44.9671 21.2012C44.578 19.8619 44.0427 18.5707 43.3711 17.3505L47.2748 11.7878C47.5891 11.3372 47.536 10.7226 47.1469 10.3376L42.7431 5.93416C42.354 5.54062 41.7349 5.49159 41.2839 5.81917L35.8055 9.75415C34.5718 9.07314 33.2678 8.53831 31.9146 8.14477L30.7518 1.47728C30.6547 0.933093 30.1858 0.539551 29.6332 0.539551H23.4078ZM26.5735 17.5185C21.5818 17.5185 17.5185 21.5818 17.5185 26.5735C17.5185 31.3402 21.219 35.2439 25.897 35.5934C26.0962 34.8196 26.3614 34.0722 26.693 33.3605C26.6533 33.3605 26.6132 33.3649 26.5735 33.3649C22.8284 33.3649 19.7821 30.3186 19.7821 26.5735C19.7821 22.8284 22.8284 19.7821 26.5735 19.7821C30.3186 19.7821 33.3649 22.8284 33.3649 26.5735C33.3649 26.6132 33.3605 26.6533 33.3605 26.693C34.0722 26.3614 34.8196 26.0962 35.5934 25.897C35.2439 21.219 31.3402 17.5185 26.5735 17.5185ZM39.0247 27.7056C32.786 27.7056 27.7056 32.786 27.7056 39.0247C27.7056 45.2634 32.786 50.3434 39.0247 50.3434C41.7394 50.3434 44.2286 49.3798 46.1829 47.7789L52.9391 54.5396L54.5396 52.9391L47.7789 46.1829C49.3798 44.2286 50.3434 41.7394 50.3434 39.0247C50.3434 32.786 45.2635 27.7056 39.0247 27.7056ZM39.0247 29.9692C44.0387 29.9692 48.0798 34.0107 48.0798 39.0247C48.0798 44.0387 44.0387 48.0798 39.0247 48.0798C34.0107 48.0798 29.9692 44.0387 29.9692 39.0247C29.9692 34.0107 34.0107 29.9692 39.0247 29.9692Z" fill="black"/>
</svg>
