<svg width="64" height="64" fill="none" xmlns="http://www.w3.org/2000/svg">
  <circle cx="40" cy="40" r="24" fill="#E5E5E5"/>
  <path d="M25.4078 2.53955c-.5527 0-1.026.40246-1.1142.95065l-1.079 6.6278c-1.3571.3891-2.6617.9244-3.8909 1.5965l-5.4695-3.90424c-.451-.32268-1.0701-.2741-1.4592.11498L7.99566 12.3246c-.38908.3891-.44212 1.0037-.12791 1.4503l3.84675 5.5047c-.6855 1.2381-1.2292 2.5511-1.6272 3.9176l-6.60155 1.0964c-.54374.0927-.9462.5615-.9462 1.1142v6.2254c0 .5526.39354 1.0215.93773 1.1142l6.59662 1.1717c.398 1.362.9417 2.675 1.6272 3.9176l-3.89084 5.4472c-.32268.451-.26964 1.0656.11944 1.4592l4.3994 4.4038c.3891.3936 1.0037.4421 1.4503.1279l5.5136-3.8596c1.2376.681 2.5466 1.2203 3.8997 1.6094l1.1009 6.6367c.0927.5437.5615.9462 1.1142.9462h6.2254c.5482 0 1.0215-.3935 1.1142-.9328l.3008-1.6714c-.7206-.5263-1.3838-1.1142-1.9855-1.7644l-.3757 2.1045h-4.3152l-1.0701-6.4068c-.0708-.451-.4024-.8044-.8446-.915-1.6272-.4024-3.1924-1.0478-4.6427-1.9146-.3846-.2345-.8664-.2166-1.2336.0396l-5.3233 3.7318-3.0508-3.0552 3.7625-5.2614c.2612-.3672.283-.8579.0486-1.247-.8753-1.4458-1.5296-3.0155-1.9365-4.6557-.1105-.4332-.46-.7652-.9021-.8401l-6.37555-1.1276v-4.3196l6.37115-1.0612c.4465-.0753.8049-.4069.9154-.8401.4114-1.6495 1.0612-3.2192 1.9321-4.6605.2344-.3847.2166-.8709-.0397-1.2333l-3.7139-5.3192 3.0507-3.0508 5.2792 3.7714c.3628.2608.849.283 1.2381.0531 1.4369-.8664 3.0022-1.5078 4.6467-1.9102.4426-.1106.7742-.4685.8491-.915l1.0438-6.40235h4.3107l1.1231 6.43755c.0798.4376.4069.7915.8446.902 1.6272.4069 3.188 1.0568 4.6293 1.9276.3891.2345.8798.2126 1.2466-.053l5.2926-3.8022 3.0552 3.0463-3.7714 5.3763c-.2608.3673-.2741.8491-.0486 1.2337.8624 1.4284 1.5033 2.9803 1.9102 4.6031.1105.4421.4684.7737.9195.8441l6.4553 1.0572v4.3151l-2.109.3668c.6547.6017 1.2426 1.2694 1.7689 1.99l1.6669-.2964c.5438-.0927.9373-.5615.9373-1.1142v-6.2253c0-.5527-.4025-1.026-.9507-1.1143l-6.6897-1.0968c-.3891-1.3393-.9244-2.6305-1.596-3.8507l3.9037-5.5627c.3143-.4506.2612-1.0652-.1279-1.4502l-4.4038-4.40344c-.3891-.39354-1.0082-.44257-1.4592-.11499l-5.4784 3.93493c-1.2337-.681-2.5377-1.2158-3.8909-1.6093l-1.1628-6.66752c-.0971-.54419-.566-.93773-1.1186-.93773h-6.2254Zm3.1657 16.97895c-4.9917 0-9.055 4.0633-9.055 9.055 0 4.7667 3.7005 8.6704 8.3785 9.0199.1992-.7738.4644-1.5212.796-2.2329-.0397 0-.0798.0044-.1195.0044-3.7451 0-6.7914-3.0463-6.7914-6.7914 0-3.7451 3.0463-6.7914 6.7914-6.7914 3.7451 0 6.7914 3.0463 6.7914 6.7914 0 .0397-.0044.0798-.0044.1195.7117-.3316 1.4591-.5968 2.2329-.796-.3495-4.678-4.2532-8.3785-9.0199-8.3785Zm12.4512 10.1871c-6.2387 0-11.3191 5.0804-11.3191 11.3191 0 6.2387 5.0804 11.3187 11.3191 11.3187 2.7147 0 5.2039-.9636 7.1582-2.5645l6.7562 6.7607 1.6005-1.6005-6.7607-6.7562c1.6009-1.9543 2.5645-4.4435 2.5645-7.1582 0-6.2387-5.0799-11.3191-11.3187-11.3191Zm0 2.2636c5.014 0 9.0551 4.0415 9.0551 9.0555s-4.0411 9.0551-9.0551 9.0551c-5.014 0-9.0555-4.0411-9.0555-9.0551 0-5.014 4.0415-9.0555 9.0555-9.0555Z" fill="#000"/>
</svg>
