<svg width="64" height="64" fill="none" xmlns="http://www.w3.org/2000/svg">
  <g clip-path="url(#a)">
    <path fill-rule="evenodd" clip-rule="evenodd" d="M18.3199 50.4904c-3.0905 3.0905-3.0905 8.1011 0 11.1916 3.0905 3.0905 8.1012 3.0905 11.1916 0l10.4918-10.4917 10.4918 10.4918c3.0905 3.0905 8.1012 3.0905 11.1917 0 3.0905-3.0905 3.0905-8.1011 0-11.1916L51.1949 39.9986l10.4926-10.4925c3.0905-3.0905 3.0905-8.1012 0-11.1917-3.0905-3.0904-8.1012-3.0904-11.1917 0L40.0033 28.807 29.5108 18.3145c-3.0904-3.0904-8.1011-3.0904-11.1916 0-3.0905 3.0905-3.0905 8.1012 0 11.1917l10.4925 10.4924-10.4918 10.4918Z" fill="#E5E5E5"/>
    <path d="M43.0987-.11975c-.3324.008791-.678.0303272-1.0148.0698839C40.7417.102647 39.3554.468767 38.0259.961468c-2.6589.985402-5.1076 2.476692-6.6821 4.046652-1.7011 1.69611-2.5364 3.76712-2.5188 5.89488.0132 1.8402.704 3.6976 1.7143 5.4768l-2.554 2.5813c-.3324.2703-.4854.7019-.3893 1.1203.0961.4145.4241.7415.8398.8373.4196.0958.8525-.0567 1.1236-.3881l3.1486-3.1395c.3721-.3749.4289-.9546.1402-1.395-1.1456-1.766-1.7711-3.5104-1.7844-5.0931-.0132-1.58275.5339-3.00855 1.8545-4.32535 1.2241-1.22099 3.533-2.638 5.9121-3.52319 1.4956-.5538 2.9212-.76301 4.233-.80212l-4.233 4.18598c-.0133.02154-.026.04791-.0349.06944-1.15 1.30801-1.2025 3.30079.0349 4.53494l5.9473 5.93c.0132.0132.022.0216.0352.0347 1.3119 1.1468 3.3105 1.1991 4.5478-.0347l4.2331-4.2207c-.0349 1.3296-.2447 2.7642-.8045 4.2554-.8834 2.3589-2.3045 4.6352-3.5335 5.8602-1.3206 1.3172-2.7246 1.8011-4.3031 1.7791-1.5785-.0215-3.3673-.6408-5.2125-1.744-.4417-.2615-1.0015-.1877-1.3647.1745l-1.784 1.7787c-.4461.4316-.4505 1.1428-.0176 1.5871.4329.4448 1.1456.4492 1.5917.0176l1.2594-1.2557c1.8192.9722 3.6472 1.6482 5.4929 1.6741 2.1163.0308 4.211-.7454 5.912-2.4415 1.5702-1.5655 3.0702-3.9895 4.0585-6.6275.9883-2.638 1.5084-5.4984.6995-7.91838-.1269-.36656-.4328-.63686-.8088-.72388-.3804-.08307-.7741.03032-1.0452.30502L47.7866 15.368c-.3152.3139-.9623.3574-1.4344 0-.022-.0175-.048-.0175-.0701-.0347l-5.8772-5.86054c-.3324-.3314-.35-1.02452.0697-1.49964l5.8776-5.86055c.2755-.2703.3893-.6628.3059-1.0421-.0872-.374911-.3583-.679938-.726-.806519-.8961-.3054662-1.8407-.414467-2.8334-.383701ZM3.74108-.015144c-.23627.034722-.45932.143723-.62991.313817L.312509 3.08918c-.3627816.36217-.437277.92036-.174999 1.36075l4.72321 8.16227c.23583.3837.67355.5886 1.1192.5235l2.4491-.3837L23.6121 27.8908l-.5594.5582c-1.2378 1.2337-1.2378 3.2309 0 4.4651l.7696.8021c.8918.8896 2.1207.8852 3.2183.5235l1.8893 1.8486c-.1269 1.504.3147 2.9997 1.3996 4.0814l13.6437 13.6387c2.7639 2.7558 7.2415 2.7558 10.0054 0v-.0347c2.6545-2.7817 2.6898-7.26 0-9.9415L40.3 30.2282c-1.1285-1.1252-2.6285-1.4742-4.0933-1.3955l-1.854-1.8838c.3628-1.0944.3672-2.3198-.525-3.2089l-.8045-.7674c-.6167-.6149-1.4255-.9419-2.2393-.9419-.8132 0-1.6221.327-2.2388.9419l-.5598.5577L12.8022 8.39154l.3849-2.44197c.0652-.44435-.1402-.88079-.525-1.11594L4.4759.124184c-.19263-.1090012-.41127-.1569088-.62991-.139328h-.10491ZM4.1259 2.49627l6.7522 3.87217-.35 2.26748c-.048.34414.0701.69312.3148.94145L26.4112 25.1003l-1.2246 1.221L9.61831 10.7984c-.24905-.244-.59905-.3618-.9442-.3139l-2.2741.349-3.88348-6.73254L4.1259 2.49627Zm26.658 21.80153c.2495 0 .4986.0786.6648.2443l.7696.8021c.3676.3666.3632.9116.0701 1.2562-.3892.4487-.3588 1.1247.0701 1.5348l2.5536 2.5461c.2583.2576.621.3749.9799.3143 1.0363-.1701 2.1207.0914 2.8334.8021l13.6442 13.6392c1.784 1.7787 1.8016 4.8571 0 6.7673-1.9373 1.9312-4.8497 1.9312-6.787 0l-13.679-13.6045c-.7437-.741-1.0364-1.7919-.8045-2.7206.1005-.3925-.022-.8026-.3152-1.0817l-2.5535-2.5461c-.4113-.4277-1.0893-.458-1.5393-.0699-.3456.2923-.8922.2967-1.2598-.0699l-.8045-.7674c-.3324-.3314-.3324-.9942 0-1.3256l5.4924-5.4764c.1662-.1657.4157-.2443.6647-.2443Zm-10.9848 3.3491c-.2539.0347-.4897.1613-.6647.3485l-5.3179 5.3024c-.7608-.1486-1.5084-.2791-2.2741-.2791-6.31008 0-11.439714 5.1147-11.439714 11.4064 0 6.2922 5.129634 11.3717 11.439714 11.3717 6.3106 0 11.4049-5.0795 11.4049-11.3717 0-.8153-.1833-1.6218-.3848-2.4068l3.8487-3.837c.4461-.4316.45-1.1423.0172-1.5871-.4329-.4448-1.1457-.4492-1.5918-.0176l-4.233 4.2559c-.3192.305-.4285.7713-.2799 1.1858.2799.741.3848 1.4869.3848 2.4068 0 5.0927-4.058 9.1394-9.1661 9.1394-5.10757 0-9.20087-4.0467-9.20087-9.1394s4.0933-9.1741 9.20087-9.1741c.8005 0 1.605.1134 2.4143.3138.3804.0831.7785-.0347 1.0496-.3138l5.7022-5.6856c.3324-.3187.4329-.8114.2539-1.2342-.175-.4228-.5995-.6931-1.0584-.6843h-.1049Zm15.708 6.1392-1.6093 1.6047 13.4339 13.3948 1.6094-1.6047-13.434-13.3948Zm-22.775 4.1508c-.0612.0088-.1181.0176-.175.0352L7.30938 39.437c-.37159.1046-.66473.3969-.76964.7674l-1.4692 5.2325c-.12254.3964-.01322.8241.27991 1.1159l3.9183 3.9069c.28432.2791.69956.3881 1.08435.2791l5.3875-1.4649c.3937-.1002.7044-.4101.8049-.8026l1.3295-5.232c.1093-.3837 0-.7982-.2799-1.0817l-3.9183-3.9069c-.2495-.2439-.5991-.3617-.9447-.3138Zm-.2098 2.3721 3.0085 2.9997-1.0143 4.0115-4.0933 1.0817-3.00891-3.0002 1.08482-4.0115 4.02319-1.0812Z" fill="#000"/>
  </g>
  <defs>
    <clipPath id="a">
      <path fill="#fff" d="M0 0h64v64H0z"/>
    </clipPath>
  </defs>
</svg>
