<svg width="49" height="49" viewBox="0 0 49 49" fill="none" xmlns="http://www.w3.org/2000/svg">
<path d="M11.7187 0.80957C4.64492 0.80957 0.980039 6.50706 0.980039 6.50706C0.869216 6.68189 0.809509 6.88635 0.809509 7.09511V16.1847C0.809509 16.3892 0.864921 16.5894 0.971448 16.7642C0.971448 16.7642 4.62774 22.6279 11.7187 22.6279C13.0949 22.6279 14.3393 22.274 15.4901 21.7246C15.9884 23.365 16.0824 24.8096 16.0824 24.8096V46.6279C16.0824 47.8208 17.0708 48.8096 18.2641 48.8096H21.5368C22.7301 48.8096 23.7185 47.8208 23.7185 46.6279V44.6292C23.7399 44.5098 23.7399 44.3904 23.7185 44.2757V25.2739C23.7271 25.1292 23.9869 19.3084 22.743 13.3635C22.1077 10.3549 21.0978 7.30387 19.3719 4.91345C17.6421 2.5226 15.0721 0.80957 11.7187 0.80957ZM37.9003 0.80957C34.5469 0.80957 31.9773 2.5226 30.2471 4.91345C28.5212 7.30387 27.5113 10.3549 26.8765 13.3635C25.6321 19.3084 25.892 25.1292 25.9006 25.2739V44.2628C25.8791 44.3822 25.8791 44.5012 25.9006 44.6163V46.6279C25.9006 47.8208 26.8889 48.8096 28.0822 48.8096H31.3549C32.5482 48.8096 33.537 47.8208 33.537 46.6279V24.8096C33.537 24.8096 33.6307 23.365 34.1289 21.7246C35.2797 22.274 36.5241 22.6279 37.9003 22.6279C44.9913 22.6279 48.6433 16.7642 48.6433 16.7642C48.7541 16.5894 48.8095 16.3892 48.8095 16.1847V7.09511C48.8095 6.88635 48.7498 6.68189 48.639 6.50706C48.639 6.50706 44.9745 0.80957 37.9003 0.80957ZM11.7187 2.99123C14.3651 2.99123 16.1589 4.1974 17.5992 6.19178C19.0437 8.18616 20.0111 10.9773 20.6034 13.8154C21.7967 19.4828 21.5368 25.2228 21.5368 25.2228C21.5368 25.24 21.5368 25.2572 21.5368 25.2739V43.3552H20.4458C20.054 43.3509 19.6872 43.5554 19.487 43.8964C19.2911 44.2371 19.2911 44.6546 19.487 44.9956C19.6872 45.3367 20.054 45.5412 20.4458 45.5369H21.5368V46.6279H18.2641V24.8096C18.2641 24.8096 18.4046 19.2697 14.5653 16.308C14.2586 16.061 13.8406 15.9927 13.4699 16.1418C13.1035 16.287 12.8437 16.6237 12.7925 17.0198C12.7457 17.4119 12.912 17.8041 13.2358 18.0382C13.8325 18.4987 14.2624 19.1121 14.6336 19.7469C13.7852 20.1731 12.8608 20.4458 11.7187 20.4458C6.04266 20.4458 3.20423 16.1164 2.99117 15.7883V7.49974C3.21282 7.1677 6.03407 2.99123 11.7187 2.99123ZM37.9003 2.99123C43.5849 2.99123 46.4062 7.1677 46.6278 7.49974V15.7883C46.4148 16.1164 43.5768 20.4458 37.9003 20.4458C36.7586 20.4458 35.8338 20.1731 34.9859 19.7469C35.3566 19.1121 35.787 18.4987 36.3836 18.0382C36.7071 17.8041 36.8733 17.4119 36.8265 17.0198C36.7754 16.6237 36.5155 16.287 36.1491 16.1418C35.7784 15.9927 35.3609 16.061 35.0537 16.308C31.2145 19.2697 31.3549 24.8096 31.3549 24.8096V46.6279H28.0822V45.5369H29.1733C29.565 45.5412 29.9318 45.3367 30.132 44.9956C30.3279 44.6546 30.3279 44.2371 30.132 43.8964C29.9318 43.5554 29.565 43.3509 29.1733 43.3552H28.0822V25.2739C28.0822 25.2572 28.0822 25.24 28.0822 25.2228C28.0822 25.2228 27.8223 19.4828 29.0156 13.8154C29.608 10.9773 30.5753 8.18616 32.0199 6.19178C33.4601 4.1974 35.2543 2.99123 37.9003 2.99123ZM14.9613 6.25578C14.5185 6.26007 14.122 6.5367 13.9643 6.95035C13.8024 7.36358 13.9089 7.83651 14.2328 8.13934C14.808 8.69302 15.3578 9.47737 15.8436 10.4404C16.0098 10.8068 16.3591 11.0538 16.7598 11.0796C17.1606 11.1092 17.5437 10.9176 17.7568 10.5766C17.9741 10.2398 17.987 9.8137 17.7912 9.46448C17.2242 8.33521 16.5554 7.35069 15.75 6.57107C15.5412 6.36231 15.2556 6.24719 14.9613 6.25578ZM34.6276 6.25578C34.3424 6.25578 34.0696 6.37047 33.8691 6.57107C33.0637 7.35069 32.3949 8.33521 31.8279 9.46448C31.632 9.8137 31.6449 10.2398 31.8622 10.5766C32.0753 10.9176 32.4589 11.1092 32.8592 11.0796C33.26 11.0538 33.6092 10.8068 33.7754 10.4404C34.2612 9.47737 34.811 8.69302 35.3862 8.13934C35.7144 7.83221 35.8209 7.35499 35.6504 6.93747C35.4841 6.51995 35.0752 6.24719 34.6276 6.25578ZM6.26388 10.6277C5.66337 10.6277 5.17326 11.1178 5.17326 11.7187C5.17326 12.3197 5.66337 12.8098 6.26388 12.8098C6.86481 12.8098 7.35492 12.3197 7.35492 11.7187C7.35492 11.1178 6.86481 10.6277 6.26388 10.6277ZM43.3551 10.6277C42.7542 10.6277 42.2641 11.1178 42.2641 11.7187C42.2641 12.3197 42.7542 12.8098 43.3551 12.8098C43.9556 12.8098 44.4458 12.3197 44.4458 11.7187C44.4458 11.1178 43.9556 10.6277 43.3551 10.6277Z" fill="black"/>
</svg>
