<svg width="64" height="64" fill="none" xmlns="http://www.w3.org/2000/svg">
  <g clip-path="url(#a)">
    <path d="M33.7825 60.1128 17.2841 28.216C14.8741 23.5567 18.256 18 23.5016 18h32.9968c5.2456 0 8.6275 5.5567 6.2175 10.216L46.2175 60.1128c-2.6097 5.0454-9.8253 5.0454-12.435 0Z" fill="#E5E5E5"/>
    <path d="M14.7187 3.80957c-7.07378 0-10.73866 5.69749-10.73866 5.69749-.11082.17483-.17053.37929-.17053.58804v9.0896c0 .2045.05541.4047.16194.5795 0 0 3.65629 5.8637 10.74725 5.8637 1.3762 0 2.6206-.3539 3.7714-.9033.4983 1.6404.5923 3.085.5923 3.085v21.8183c0 1.1929.9884 2.1817 2.1817 2.1817h3.2727c1.1933 0 2.1817-.9888 2.1817-2.1817v-1.9987c.0214-.1194.0214-.2388 0-.3535V28.2739c.0086-.1447.2684-5.9655-.9755-11.9104-.6353-3.0086-1.6452-6.0596-3.3711-8.45005-1.7298-2.39085-4.2998-4.10388-7.6532-4.10388Zm26.1816 0c-3.3534 0-5.923 1.71303-7.6532 4.10388-1.7259 2.39045-2.7358 5.44145-3.3706 8.45005-1.2444 5.9449-.9845 11.7657-.9759 11.9104v18.9889c-.0215.1194-.0215.2384 0 .3535v2.0116c0 1.1929.9883 2.1817 2.1816 2.1817h3.2727c1.1933 0 2.1821-.9888 2.1821-2.1817V27.8096s.0937-1.4446.5919-3.085c1.1508.5494 2.3952.9033 3.7714.9033 7.091 0 10.743-5.8637 10.743-5.8637.1108-.1748.1662-.375.1662-.5795v-9.0896c0-.20875-.0597-.41321-.1705-.58804 0 0-3.6645-5.69749-10.7387-5.69749ZM14.7187 5.99123c2.6464 0 4.4402 1.20617 5.8805 3.20055 1.4445 1.99442 2.4119 4.78552 3.0042 7.62362 1.1933 5.6674.9334 11.4074.9334 11.4074v18.1324h-1.091c-.3918-.0043-.7586.2002-.9588.5412-.1959.3407-.1959.7582 0 1.0992.2002.3411.567.5456.9588.5413h1.091v1.091h-3.2727V27.8096s.1405-5.5399-3.6988-8.5016c-.3067-.247-.7247-.3153-1.0954-.1662-.3664.1452-.6262.4819-.6774.878-.0468.3921.1195.7843.4433 1.0184.5967.4605 1.0266 1.0739 1.3978 1.7087-.8484.4262-1.7728.6989-2.9149.6989-5.67604 0-8.51447-4.3294-8.72753-4.6575v-8.2886c.22165-.332 3.0429-4.50847 8.72753-4.50847Zm26.1816 0c5.6846 0 8.5059 4.17647 8.7275 4.50847v8.2886c-.213.3281-3.051 4.6575-8.7275 4.6575-1.1417 0-2.0665-.2727-2.9144-.6989.3707-.6348.8011-1.2482 1.3977-1.7087.3235-.2341.4897-.6263.4429-1.0184-.0511-.3961-.311-.7328-.6774-.878-.3707-.1491-.7882-.0808-1.0954.1662-3.8392 2.9617-3.6988 8.5016-3.6988 8.5016v21.8183h-3.2727v-1.091h1.0911c.3917.0043.7585-.2002.9587-.5413.1959-.341.1959-.7585 0-1.0992-.2002-.341-.567-.5455-.9587-.5412h-1.0911V28.2228s-.2599-5.74.9334-11.4074c.5924-2.8381 1.5597-5.6292 3.0043-7.62362 1.4402-1.99438 3.2344-3.20055 5.8804-3.20055Zm-22.939 3.26455c-.4428.00429-.8393.28092-.997.69457-.1619.41325-.0554.88615.2685 1.18895.5752.5537 1.125 1.3381 1.6108 2.3011.1662.3664.5155.6134.9162.6392.4008.0296.7839-.162.997-.503.2173-.3368.2302-.7629.0344-1.1121-.567-1.1293-1.2358-2.1138-2.0412-2.89343-.2088-.20876-.4944-.32388-.7887-.31529Zm19.6663 0c-.2852 0-.558.11469-.7585.31529-.8054.77963-1.4742 1.76413-2.0412 2.89343-.1959.3492-.183.7753.0343 1.1121.2131.341.5967.5326.997.503.4008-.0258.75-.2728.9162-.6392.4858-.963 1.0356-1.7474 1.6108-2.3011.3282-.3071.4347-.7843.2642-1.20183-.1663-.41752-.5752-.69028-1.0228-.68169ZM9.26388 13.6277c-.60051 0-1.09062.4901-1.09062 1.091 0 .601.49011 1.0911 1.09062 1.0911.60093 0 1.09102-.4901 1.09102-1.0911 0-.6009-.49009-1.091-1.09102-1.091Zm37.09122 0c-.6009 0-1.091.4901-1.091 1.091 0 .601.4901 1.0911 1.091 1.0911.6005 0 1.0907-.4901 1.0907-1.0911 0-.6009-.4902-1.091-1.0907-1.091Z" fill="#000"/>
  </g>
  <defs>
    <clipPath id="a">
      <path fill="#fff" d="M0 0h64v64H0z"/>
    </clipPath>
  </defs>
</svg>
