<svg width="64" height="64" fill="none" xmlns="http://www.w3.org/2000/svg">
  <rect x="22" y="16" width="30" height="48" rx="4" fill="#E5E5E5"/>
  <path d="M17.6665 4C14.5499 4 12 6.54378 12 9.65241V50.3476C12 53.4562 14.5499 56 17.6665 56h22.667C43.4501 56 46 53.4562 46 50.3476V9.65241C46 6.54378 43.4501 4 40.3335 4h-22.667Zm2.5147 2.26114h17.6376c-.2655.45891-.4649.96677-.5578 1.5187l-.3454 2.05773c-.0883.55233-.5533.94493-1.1156.94493H22.2c-.5623 0-1.0273-.3926-1.1156-.94493l-.3499-2.05773c-.0884-.55193-.2878-1.05979-.5533-1.5187Zm-3.276.08813c.0134.0089.0308.01335.0442.01781.7925.25148 1.4079.9227 1.5494 1.78398l.3498 2.05774c.27 1.6291 1.6958 2.8349 3.3514 2.8349h13.6c1.6556 0 3.0814-1.2058 3.3514-2.8349l.3454-2.05774c.1459-.87864.7925-1.55876 1.6069-1.79734 1.5141.34451 2.6298 1.67805 2.6298 3.29869V50.3476c0 1.8855-1.5097 3.3913-3.4 3.3913h-22.667c-1.8903 0-3.4-1.5058-3.4-3.3913V9.65241c0-1.62509 1.1201-2.95863 2.6387-3.30314Zm8.6948 1.042c-.4074-.00446-.7881.20786-.996.56083-.2035.35341-.2035.78606 0 1.13947.2079.35342.5886.56529.996.56084H29c.4074.00445.7881-.20742.996-.56084.204-.35341.204-.78606 0-1.13947-.2079-.35297-.5886-.56529-.996-.56083h-3.4Zm6.8 0c-.6243 0-1.1335.50786-1.1335 1.13057 0 .6227.5092 1.13057 1.1335 1.13057s1.1335-.50787 1.1335-1.13057c0-.62271-.5092-1.13057-1.1335-1.13057Z" fill="#000"/>
</svg>
