<svg width="34" height="52" viewBox="0 0 34 52" fill="none" xmlns="http://www.w3.org/2000/svg">
<path d="M5.66652 0C2.54989 0 0 2.54378 0 5.65241V46.3476C0 49.4562 2.54989 52 5.66652 52H28.3335C31.4501 52 34 49.4562 34 46.3476V5.65241C34 2.54378 31.4501 0 28.3335 0H5.66652ZM8.18115 2.26114H25.8188C25.5533 2.72005 25.3539 3.22791 25.261 3.77984L24.9156 5.83757C24.8273 6.38995 24.3623 6.78253 23.8 6.78253H10.2C9.63772 6.78253 9.17273 6.38995 9.08437 5.83757L8.73451 3.77984C8.64615 3.22791 8.44667 2.72005 8.18115 2.26114ZM4.90521 2.34927C4.9186 2.35817 4.936 2.36262 4.94939 2.36708C5.74193 2.61856 6.35732 3.28978 6.49878 4.15106L6.84864 6.20879C7.11862 7.83788 8.5444 9.04367 10.2 9.04367H23.8C25.4556 9.04367 26.8814 7.83788 27.1514 6.20879L27.4968 4.15106C27.6427 3.27242 28.2893 2.5923 29.1037 2.35372C30.6178 2.69823 31.7335 4.03177 31.7335 5.65241V46.3476C31.7335 48.2331 30.2238 49.7389 28.3335 49.7389H5.66652C3.77619 49.7389 2.26652 48.2331 2.26652 46.3476V5.65241C2.26652 4.02732 3.38661 2.69378 4.90521 2.34927ZM13.6 3.39127C13.1926 3.38681 12.8119 3.59913 12.604 3.9521C12.4005 4.30551 12.4005 4.73816 12.604 5.09157C12.8119 5.44499 13.1926 5.65686 13.6 5.65241H17C17.4074 5.65686 17.7881 5.44499 17.996 5.09157C18.2 4.73816 18.2 4.30551 17.996 3.9521C17.7881 3.59913 17.4074 3.38681 17 3.39127H13.6ZM20.4 3.39127C19.7757 3.39127 19.2665 3.89913 19.2665 4.52184C19.2665 5.14454 19.7757 5.65241 20.4 5.65241C21.0243 5.65241 21.5335 5.14454 21.5335 4.52184C21.5335 3.89913 21.0243 3.39127 20.4 3.39127Z" fill="black"/>
</svg>
