<svg width="85" height="14" fill="none" xmlns="http://www.w3.org/2000/svg">
  <path fill-rule="evenodd" clip-rule="evenodd" d="M48.9899 7.26993c.2041.24686.3062.54594.3062.89725 0 .56494-.2018 1.02187-.6053 1.37081-.4035.34893-.9803.52341-1.7304.52341-.3466 0-.6836-.0463-1.0112-.13888-.3276-.09257-.5875-.19226-.7798-.29908-.1922-.10682-.3714-.23262-.5376-.37742-.1662-.14479-.2742-.24686-.324-.3062-.0499-.05934-.0843-.10326-.1033-.13174l-.6693.74059.1353.16378c.0759.10445.2112.23262.4059.38455.1946.1519.4177.3003.6693.4451.2516.1448.5745.2706.9685.3774s.8094.1602 1.2462.1602c1.0729 0 1.9132-.2694 2.5208-.8082.6077-.53887.9115-1.24029.9115-2.10432 0-.49847-.102-.92455-.3062-1.27823-.2041-.35368-.47-.62784-.7975-.82248-.3276-.19464-.6872-.35961-1.0789-.49491-.3916-.13531-.7845-.25874-1.1785-.3703-.394-.11156-.7548-.23618-1.0824-.37386-.3276-.13767-.5934-.32994-.7976-.5768-.2041-.24687-.3062-.54595-.3062-.89726 0-.48423.1982-.89725.5946-1.23906.3964-.34181.9293-.51272 1.5987-.51272.2801 0 .5519.0368.8154.11038.2635.07358.4747.15666.6338.24924.159.09257.3097.19701.4521.31332.1425.11632.2327.19702.2706.24212.038.0451.0665.08189.0855.11038l.7335-.73347-.1211-.14242c-.076-.0902-.2018-.19821-.3774-.32401-.1757-.12581-.3751-.25161-.5982-.37742-.2231-.125805-.502-.234993-.8367-.327567-.3347-.092575-.6872-.138861-1.0575-.138861-.9827 0-1.7755.269411-2.3784.808238-.6029.53883-.9044 1.19278-.9044 1.96185 0 .49373.1021.91862.3062 1.27467.2042.35606.4688.6314.794.82605.3252.19464.6848.35961 1.0789.49491.394.1353.788.25873 1.1821.3703.394.11156.7536.23618 1.0788.37385.3252.13768.5899.32994.794.57681Zm7.8161.16734c0 .71923-.2564 1.34944-.7691 1.89065-.508.53645-1.0777.80468-1.7091.80468-.6029 0-1.1429-.26229-1.62-.78688-.4771-.52459-.7157-1.16073-.7157-1.90845 0-.74771.2386-1.38385.7157-1.90844.4771-.52459 1.0171-.78688 1.62-.78688.6314 0 1.2023.26941 1.7127.80824.5103.53883.7655 1.16785.7655 1.88708Zm0 2.40336v4.15867h1.0183V3.93727H56.806v1.09665l-.0997-.13531c-.0712-.08545-.1769-.18989-.3169-.31332-.1401-.12343-.305-.2433-.4949-.35962-.1899-.11631-.4237-.21837-.7015-.3062-.2777-.08783-.5661-.13174-.8652-.13174-.8925 0-1.6746.35842-2.3464 1.07528-.6717.71686-1.0076 1.57494-1.0076 2.57426 0 .99933.3359 1.85622 1.0076 2.57073.6718.7145 1.4539 1.0717 2.3464 1.0717.2991 0 .5899-.0427.8724-.1282.2824-.0854.5139-.1839.6943-.2955.1804-.1116.3489-.2386.5056-.381.1566-.1424.2587-.2433.3062-.30263.0474-.05934.0807-.10325.0997-.13174Zm7.7235.14954v.94713h1.0254V3.93727h-1.0254v3.86674c0 .67888-.2042 1.23669-.6124 1.67345-.4083.43676-.9092.65514-1.5026.65514-.5507 0-1.0159-.19939-1.3957-.59817-.3798-.39879-.5697-.90438-.5697-1.51679V3.93727h-1.0183v4.08037c0 .90675.2694 1.64378.8082 2.21106.5389.5673 1.2165.851 2.0331.851.2801 0 .5519-.038.8154-.1139.2634-.076.4759-.1626.6373-.26.1614-.0973.3121-.2088.4522-.3346.14-.1259.229-.2137.267-.2635.038-.0499.0665-.089.0855-.11753Zm6.933-3.50356-2.6989.44151c-.6598.10919-1.1654.34299-1.5167.70142-.3513.35843-.527.8296-.527 1.41353 0 .53171.2386 1.00403.7157 1.41713.4771.413 1.0646.6195 1.7624.6195.2801 0 .5519-.038.8154-.1139.2635-.076.4759-.1626.6373-.26.1614-.0973.3122-.2088.4522-.3346.1401-.1259.2303-.2137.2706-.2635.0404-.0499.07-.089.089-.11753v.94713h1.0183V6.48661c0-.76433-.2622-1.40522-.7868-1.92268-.5246-.51747-1.1857-.7762-1.9832-.7762-.3134 0-.6208.04629-.9222.13886-.3015.09257-.5448.1982-.7299.31689-.1852.11868-.362.25279-.5306.40234-.1685.14954-.2777.25398-.3275.31332-.0499.05935-.089.10801-.1175.14599l.6551.65513.2208-.24923c.1471-.17566.3833-.34775.7085-.51628.3252-.16853.673-.2528 1.0433-.2528.5127 0 .9328.16141 1.2604.48423.3276.32283.4913.74297.4913 1.26043Zm-.6373 2.99797c-.4249.43201-.9673.64802-1.6272.64802-.4557 0-.813-.1033-1.0717-.30977-.2587-.20651-.3881-.46643-.3881-.77976.0048-.65989.4439-1.0729 1.3174-1.23906l2.4069-.44151v.44151c0 .68837-.2124 1.24856-.6373 1.68057Zm6.901-4.67142V3.78773h-.292c-.3038 0-.5922.03916-.8652.1175-.2729.07833-.4913.16615-.6551.26348-.1638.09732-.3169.20888-.4593.33469-.1424.1258-.2326.21363-.2706.26348-.038.04984-.0665.08901-.0855.11749v-.9471h-1.0183v7.00003h1.0183V7.07054c0-.66938.2137-1.21295.6409-1.63072.4273-.41778.9424-.62666 1.5453-.62666h.4415Zm1.1579 2.99085 5.6897.01424.0712-.52696c0-1.01119-.3204-1.84791-.9613-2.51017-.6409-.66226-1.4385-.99339-2.3927-.99339-.921 0-1.7221.35486-2.4033 1.0646-.6813.70973-1.0219 1.57019-1.0219 2.58138 0 1.0112.3442 1.87165 1.0325 2.58139.6884.7097 1.5097 1.0646 2.4639 1.0646.3513 0 .6943-.0534 1.029-.1602.3347-.1068.6077-.2232.8189-.349.2113-.1258.4083-.2706.5911-.4343.1828-.16383.3015-.28014.356-.34898.0546-.06883.0962-.12224.1247-.16022l-.6552-.65514-.2492.28484c-.1567.19465-.4225.38929-.7976.58393-.375.19467-.7809.29197-1.2177.29197-.6504 0-1.2165-.23025-1.6983-.69075-.4819-.4605-.7418-1.00644-.7798-1.63784Zm2.4069-3.06206c.6124 0 1.1346.20651 1.5667.61953.4367.41303.6931.93523.769 1.56664h-4.7426c.0807-.59343.3489-1.10614.8047-1.53815.4557-.43202.9898-.64802 1.6022-.64802ZM4.74263 5.1047 2.33571.72525H0l3.64598 6.56562v3.64603h2.19329V7.29087L9.48525.72525H7.14954L4.74263 5.1047Zm5.46617 2.91252h5.177l.0712-.79756c0-1.02069-.3395-1.87165-1.0183-2.5529-.6789-.68125-1.5287-1.02187-2.5494-1.02187s-1.89655.36435-2.62765 1.09308c-.7311.72872-1.09664 1.60342-1.09664 2.62411 0 1.02069.37029 1.89538 1.11088 2.62411.74061.72871 1.63551 1.09311 2.68461 1.09311.3703 0 .7299-.0428 1.0789-.1282.3489-.0855.6326-.184.8509-.2955.2184-.1116.4249-.2386.6196-.381.1946-.1424.3228-.2445.3845-.30621l.1282-.12818-1.0183-1.31028-.2065.22076c-.1282.14717-.3502.29315-.6659.43794-.3157.1448-.6586.21719-1.0289.21719-.5128 0-.9377-.13411-1.2747-.40234-.3371-.26822-.5436-.59698-.6195-.98626Zm1.6805-2.69176c.4178 0 .7691.12343 1.0539.37029.2896.24687.4724.56019.5484.93998h-3.2828c.1186-.38929.324-.70498.6159-.9471.292-.24212.6469-.36317 1.0646-.36317Zm6.342 5.61144V.72525h-1.9725V10.9369h1.9725Zm3.28 0V.72525h-1.9725V10.9369h1.9725Zm2.8385-3.57126c0-.53408.1732-.98389.5198-1.34944.3466-.36555.7572-.54832 1.2319-.54832.4748 0 .8854.18277 1.232.54832.3465.36555.5198.81536.5198 1.34944s-.1733.9827-.5198 1.34588c-.3466.36318-.7572.54476-1.232.54476-.4747 0-.8853-.18158-1.2319-.54476-.3466-.36318-.5198-.8118-.5198-1.34588Zm5.5401-.00356c0-.99221-.3774-1.85859-1.1322-2.59919-.7501-.74534-1.6355-1.118-2.6562-1.118-1.0207 0-1.9084.37147-2.6632 1.11444-.7549.74297-1.1323 1.61054-1.1323 2.60275 0 .99221.3774 1.85978 1.1323 2.60275.7548.74297 1.6425 1.11447 2.6632 1.11447 1.0207 0 1.9073-.3715 2.6598-1.11447.7524-.74297 1.1286-1.61054 1.1286-2.60275Zm6.1284-3.57477h-1.4598l-1.3886 4.30824-1.3815-4.30824h-2.0437l2.4354 7.14959h1.7233l1.3815-4.08042 1.3886 4.08042h1.7161l2.4354-7.14959h-2.0366l-1.3886 4.30824-1.3815-4.30824Z" fill="#fff"/>
</svg>
