<svg width="104" height="16" fill="none" xmlns="http://www.w3.org/2000/svg">
  <path d="M4.39355 0v5.94043c.07162-.11458.17904-.25423.32227-.41895.15039-.17187.4834-.40104.99902-.6875.51563-.28645 1.06706-.42968 1.6543-.42968 1.13151 0 2.05534.40462 2.77146 1.21386.7162.80209 1.0742 1.90137 1.0742 3.29786v6.48828H6.82129v-5.5c0-.37956-.11458-.69466-.34375-.94532-.22917-.25065-.50488-.37597-.82715-.37597-.32227 0-.6123.15755-.87012.47265-.25781.31511-.38672.70899-.38672 1.18164v5.167H0V0h4.39355ZM24.1918 11h-6.9287c.1289.3223.376.6051.7412.8486.3724.2435.8594.3653 1.461.3653.3939 0 .7627-.0609 1.1064-.1827.3509-.1289.6052-.2578.7627-.3867l.2256-.2041 1.751 2.75c-.1289.1146-.3151.2578-.5586.4297-.2435.1719-.7591.4011-1.5469.6875-.7806.2865-1.5791.4297-2.3955.4297-1.7331 0-3.194-.5622-4.3828-1.6865-1.1888-1.1244-1.7832-2.4707-1.7832-4.0391 0-1.56834.5729-2.91111 1.7187-4.0283 1.1459-1.12435 2.5531-1.68652 4.2217-1.68652 1.6257 0 3.0042.54427 4.1358 1.63281 1.1315 1.08138 1.6972 2.37044 1.6972 3.86719 0 .23632-.0179.45472-.0537.65522-.0358.1934-.0788.3331-.1289.419l-.043.1289Zm-4.7373-3.05078c-.2578-.23633-.5478-.35449-.8701-.35449-.3223 0-.6123.11816-.8701.35449-.2578.22917-.444.51562-.5586.85937h2.8574c-.1146-.33658-.3008-.62304-.5586-.85937ZM30.2401 0v15.4043h-4.3935V0h4.3935Zm6.6069 0v15.4043h-4.3936V0h4.3936Zm6.6069 8.83008c-.2937.30794-.4405.7054-.4405 1.19242 0 .4798.1468.8737.4405 1.1816.2936.3079.6588.4619 1.0957.4619.444 0 .8128-.154 1.1064-.4619.2936-.3079.4404-.7018.4404-1.1816 0-.48702-.1468-.88448-.4404-1.19242-.2936-.30794-.6624-.46192-1.1064-.46192-.4369 0-.8021.15398-1.0957.46192Zm5.4785-2.84668c1.1888 1.11719 1.7832 2.45996 1.7832 4.0283 0 1.5684-.5944 2.9147-1.7832 4.0391-1.1888 1.1243-2.6498 1.6865-4.3828 1.6865-1.7259 0-3.1833-.5622-4.3721-1.6865-1.1888-1.1244-1.7832-2.4707-1.7832-4.0391 0-1.56834.5944-2.91111 1.7832-4.0283 1.1888-1.12435 2.6462-1.68652 4.3721-1.68652 1.733 0 3.194.56217 4.3828 1.68652Zm9.3783-1.13867h1.9766l2.417 7.26167 2.4277-7.26167h2.3096L63.8107 15.4043H61.716l-2.417-7.03614-2.417 7.03614h-2.0947L51.1564 4.84473h2.3096l2.4277 7.26167 2.417-7.26167Zm17.6069 7.77737c.6517-.6804.9776-1.5111.9776-2.4922 0-.9883-.3259-1.82261-.9776-2.50295-.6517-.68034-1.4251-1.0205-2.3203-1.0205s-1.6722.34016-2.331 1.0205c-.6517.68034-.9776 1.51465-.9776 2.50295 0 .9811.3259 1.8118.9776 2.4922.6588.6803 1.4358 1.0205 2.331 1.0205s1.6686-.3402 2.3203-1.0205Zm-6.1875 1.3642c-1.0885-1.0957-1.6328-2.3812-1.6328-3.8564 0-1.48244.5443-2.7715 1.6328-3.8672 1.0957-1.09571 2.3848-1.64356 3.8672-1.64356 1.4824 0 2.7679.54785 3.8565 1.64356 1.0957 1.0957 1.6435 2.38476 1.6435 3.8672 0 1.4752-.5478 2.7607-1.6435 3.8564-1.0886 1.0886-2.3741 1.6328-3.8565 1.6328-1.4824 0-2.7715-.5442-3.8672-1.6328Zm17.2846-7.27243c-.2936-.07162-.623-.10742-.9883-.10742-.8378 0-1.5074.27213-2.0087.8164-.4942.53711-.7413 1.29264-.7413 2.2666v5.71485h-2.2021V4.84473h2.2021v1.0957l.1397-.13965c.0644-.06445.2005-.16829.4082-.31152.2077-.15039.4261-.28288.6553-.39746.2363-.12175.5335-.22917.8916-.32227.3652-.10026.7304-.15039 1.0957-.15039h.5478v2.09473ZM90.7427 0v15.4043h-2.1914V0h2.1914Zm7.3696 4.61914c.3938 0 .777.05013 1.1494.15039.3795.0931.6982.21126.9563.35449.265.13607.501.2793.709.42969.207.14323.354.25781.44.34375l.151.16113V0h2.202v15.4043h-2.202v-1.2139c-.101.1003-.244.2328-.43.3975-.179.1647-.566.3795-1.1603.6445-.5944.2578-1.1995.3867-1.8154.3867-1.3965 0-2.6068-.5335-3.6309-1.6005-1.0241-1.0743-1.5361-2.3741-1.5361-3.8995 0-1.52535.512-2.82157 1.5361-3.88863 1.0241-1.07422 2.2344-1.61133 3.6309-1.61133Zm-2.0088 7.99216c.6517.6875 1.3929 1.0313 2.2236 1.0313.8379 0 1.5791-.3438 2.2239-1.0313.644-.6875.967-1.5146.967-2.4814 0-.97398-.323-1.8047-.967-2.4922-.6448-.6875-1.386-1.03125-2.2239-1.03125-.8307 0-1.5719.34375-2.2236 1.03125-.6446.6875-.9668 1.51822-.9668 2.4922 0 .9668.3222 1.7939.9668 2.4814Z" fill="#000"/>
</svg>
