<svg width="28" height="28" fill="none" xmlns="http://www.w3.org/2000/svg">
  <g clip-path="url(#a)">
    <path d="M27.5 14c0 7.4558-6.0441 13.5-13.5 13.5C6.54416 27.5.500004 21.4558.500002 14 .500001 6.54416 6.54416.5 14 .5 21.4558.5 27.5 6.54416 27.5 14Z" stroke="#000"/>
    <path d="M5.89531 12.2061c.00354-.0036.007-.007.01054-.0106 1.7462-1.6354 5.36605-1.9773 8.09665-1.9764 2.7322-.001 6.353.3418 8.0886 1.972.6099.5713.211 3.0707.2066 3.0961-.1143.6382-.6249.9624-1.0335.8964-.2768-.0448-3.0399-.6107-3.3484-.6802-.3199-.072-.5931-.3823-.7311-.8296-.0774-.2478-.2919-1.0282-.3912-1.3929-.347-.0606-1.2258-.182-2.7902-.182-1.5652.0009-2.444.1204-2.792.1819-.0994.3648-.3137 1.1452-.3911 1.393-.1353.4412-.406.7506-.725.827-.32605.0783-3.09.6345-3.3492.6811-.21881.0377-.45613-.0343-.65297-.1978-.19772-.166-.33396-.4148-.38499-.6995-.00425-.0237-.39801-2.4932.18727-3.0785Z" fill="#000"/>
  </g>
  <defs>
    <clipPath id="a">
      <path fill="#fff" d="M0 0h28v28H0z"/>
    </clipPath>
  </defs>
</svg>
