<svg width="24" height="24" fill="none" xmlns="http://www.w3.org/2000/svg">
  <path d="M11.9047 1.42871c-5.7758 0-10.47623 4.70044-10.47623 10.47619 0 5.7757 4.70043 10.4762 10.47623 10.4762 5.7757 0 10.4761-4.7005 10.4761-10.4762 0-5.77575-4.7004-10.47619-10.4761-10.47619Zm4.148 13.94719c.186.186.186.4911 0 .6771-.0949.0892-.2139.1376-.3384.1376-.1247 0-.2438-.0484-.3386-.1376l-3.471-3.471-3.47105 3.471c-.09487.0892-.21393.1376-.33843.1376-.12469 0-.24375-.0484-.33863-.1376-.186-.186-.186-.4911 0-.6771l3.47101-3.471-3.47101-3.471c-.186-.186-.186-.49106 0-.67706s.49106-.186.67706 0l3.47105 3.47096 3.471-3.47096c.186-.186.491-.186.677 0 .186.186.186.49106 0 .67706l-3.471 3.471 3.471 3.471Z" fill="#CBCBCB"/>
</svg>
