<svg width="22" height="22" viewBox="0 0 22 22" fill="none" xmlns="http://www.w3.org/2000/svg">
<path d="M10.9049 0.428467C5.12915 0.428467 0.428711 5.1289 0.428711 10.9047C0.428711 16.6804 5.12915 21.3808 10.9049 21.3808C16.6806 21.3808 21.3811 16.6804 21.3811 10.9047C21.3811 5.1289 16.6806 0.428467 10.9049 0.428467ZM15.053 14.3757C15.239 14.5617 15.239 14.8667 15.053 15.0527C14.9581 15.142 14.839 15.1903 14.7145 15.1903C14.5898 15.1903 14.4708 15.142 14.3759 15.0527L10.9049 11.5817L7.4339 15.0527C7.33902 15.142 7.21996 15.1903 7.09546 15.1903C6.97077 15.1903 6.85171 15.142 6.75684 15.0527C6.57084 14.8667 6.57084 14.5617 6.75684 14.3757L10.2278 10.9047L6.75684 7.43365C6.57084 7.24765 6.57084 6.94259 6.75684 6.75659C6.94284 6.57059 7.2479 6.57059 7.4339 6.75659L10.9049 10.2276L14.3759 6.75659C14.5619 6.57059 14.867 6.57059 15.053 6.75659C15.239 6.94259 15.239 7.24765 15.053 7.43365L11.582 10.9047L15.053 14.3757Z" fill="#CBCBCB"/>
</svg>
