<svg width="24" height="24" fill="none" xmlns="http://www.w3.org/2000/svg">
  <path d="M11.9049 1.42847c-5.77575 0-10.47619 4.70043-10.47619 10.47623 0 5.7757 4.70044 10.4761 10.47619 10.4761 5.7757 0 10.4762-4.7004 10.4762-10.4761 0-5.7758-4.7005-10.47623-10.4762-10.47623ZM16.053 15.3757c.186.186.186.491 0 .677-.0949.0893-.214.1376-.3385.1376-.1247 0-.2437-.0483-.3386-.1376l-3.471-3.471-3.471 3.471c-.09488.0893-.21394.1376-.33844.1376-.12469 0-.24375-.0483-.33862-.1376-.186-.186-.186-.491 0-.677l3.47096-3.471-3.47096-3.47105c-.186-.186-.186-.49106 0-.67706s.49106-.186.67706 0l3.471 3.47101 3.471-3.47101c.186-.186.4911-.186.6771 0 .186.186.186.49106 0 .67706l-3.471 3.47105 3.471 3.471Z" fill="#333"/>
</svg>
