<svg width="64" height="64" viewBox="0 0 64 64" fill="none" xmlns="http://www.w3.org/2000/svg">
<path d="M32.2065 3C16.1005 3 3 16.1005 3 32.2065C3 48.3125 16.1005 61.413 32.2065 61.413C48.3125 61.413 61.413 48.3125 61.413 32.2065C61.413 26.418 59.7115 21.016 56.795 16.4725L55.0585 18.531C57.4645 22.534 58.873 27.2015 58.873 32.2065C58.873 46.909 46.909 58.873 32.2065 58.873C17.504 58.873 5.54 46.909 5.54 32.2065C5.54 17.504 17.504 5.54 32.2065 5.54C39.1165 5.54 45.406 8.2085 50.148 12.534L51.8095 10.5745C46.621 5.872 39.7415 3 32.2065 3ZM55.3615 10.3065L30.8275 39.26L20.5 29.627L18.769 31.4875L31.041 42.9355L57.3055 11.9485L55.3615 10.3065Z" fill="#2C6DEC"/>
</svg>
