<svg width="28" height="28" fill="none" xmlns="http://www.w3.org/2000/svg">
  <g clip-path="url(#a)">
    <path d="M24.6668 0H3.33325C1.49206 0 0 1.49206 0 3.33325V24.6668C0 26.5079 1.49206 28 3.33325 28H24.6668C26.5079 28 28 26.5079 28 24.6668V3.33325C28 1.49206 26.5079 0 24.6668 0ZM22 10h-1.3332c-1.4273 0-2 .3334-2 1.3332v2H22l-.6665 3.3336h-2.6667v10h-3.3336v-10h-2.6664v-3.3336h2.6664v-2c0-2.66645 1.3336-4.66645 4.0003-4.66645 1.9323 0 2.6665.6665 2.6665.6665V10Z" fill="#000"/>
  </g>
  <defs>
    <clipPath id="a">
      <path fill="#fff" d="M0 0h28v28H0z"/>
    </clipPath>
  </defs>
</svg>
