<svg width="28" height="28" fill="none" xmlns="http://www.w3.org/2000/svg">
  <path d="M19.25 0H8.75C3.91825 0 0 3.91825 0 8.75v10.5C0 24.0817 3.91825 28 8.75 28h10.5c4.8317 0 8.75-3.9183 8.75-8.75V8.75C28 3.91825 24.0817 0 19.25 0Zm6.125 19.25c0 3.3775-2.7475 6.125-6.125 6.125H8.75c-3.3775 0-6.125-2.7475-6.125-6.125V8.75c0-3.3775 2.7475-6.125 6.125-6.125h10.5c3.3775 0 6.125 2.7475 6.125 6.125v10.5Z" fill="#000"/>
  <path d="M14 7c-3.8658 0-7 3.1342-7 7s3.1342 7 7 7 7-3.1342 7-7-3.1342-7-7-7Zm0 11.375c-2.4115 0-4.375-1.9635-4.375-4.375 0-2.4132 1.9635-4.375 4.375-4.375s4.375 1.9618 4.375 4.375c0 2.4115-1.9635 4.375-4.375 4.375Zm7.5245-10.96751c.5152 0 .9328-.41761.9328-.93275 0-.51514-.4176-.93275-.9328-.93275-.5151 0-.9327.41761-.9327.93275 0 .51514.4176.93275.9327.93275Z" fill="#000"/>
</svg>
