<svg width="28" height="28" fill="none" xmlns="http://www.w3.org/2000/svg">
  <path d="M24.6667 0H3.33325C1.49206 0 0 1.49206 0 3.33325V24.6668C0 26.5079 1.49206 28 3.33325 28H24.6667C26.5079 28 28 26.5079 28 24.6668V3.33325C28 1.49206 26.5079 0 24.6667 0Zm-2.1874 19.3335-2.4872-.0079s-.052.0079-.1378.0079c-.2005 0-.6148-.0522-1.1017-.3856-.8723-.6066-1.7057-2.1145-2.3673-2.1145-.0441 0-.0858.0077-.1249.0208-.5728.1798-.7473.7526-.7473 1.4532 0 .2446-.172.3594-.6408.3594H13.586c-1.4401 0-2.8334-.0339-4.39844-1.7475-2.30739-2.5261-4.46883-7.01826-4.46883-7.01826s-.1197-.2604.00787-.41397c.1197-.1407.40084-.15382.50768-.15382h2.70587s.24727.04698.42709.17981c.15356.11445.23179.32025.23179.32025s.45307.88019 1.02087 1.87239c.9531 1.6407 1.4661 2.1875 1.8333 2.1875.0599 0 .1197-.0129.1796-.0468.547-.2995.3879-2.7266.3879-2.7266s.0053-.8801-.2811-1.26575c-.2187-.30713-.6408-.39323-.8256-.42184-.1483-.01811.0937-.36462.4116-.52605.414-.20056 1.1015-.23941 1.9271-.23941h.4011c.7785.01287.7993.09372 1.1067.16669.9192.21867.6066 1.08072.6066 3.14056 0 .6589-.1197 1.5858.3518 1.8984.0338.0208.0805.0339.1404.0339.3074 0 .9663-.3932 2.021-2.172.5859-1.0156 1.039-2.02069 1.039-2.02069s.1016-.17981.2551-.27353c.146-.08583.146-.08583.3387-.08583h.0207c.2137 0 2.3334-.021 2.7996-.021h.0522c.4478 0 .8539.00787.9269.2814.1068.41135-.3255 1.15105-1.4661 2.68485-1.8803 2.5129-2.0937 2.3281-.5339 3.7814 1.495 1.3852 1.8021 2.0598 1.8543 2.1456.6198 1.0262-.6875 1.107-.6875 1.107Z" fill="#000"/>
</svg>
